<?xml version="1.0" encoding="UTF-8"?>
<!-- The Best Svg Icon site in the world: iconSvg.co, Visit us! https://iconsvg.co -->
<svg fill="#000000" width="800px" height="800px" version="1.1" viewBox="144 144 512 512" xmlns="http://www.w3.org/2000/svg">
 <path d="m359.7 203.52c-7.5977 0.019531-14.141 7.4922-14.957 13.383l-3.7773 33.535c-1.6445 0.66797-3.2773 1.332-4.8789 2.0469l-26.449-21.098c-5.7461-4.6094-14.945-4.1094-20.152 1.1016l-56.992 56.992c-5.125 5.1914-5.625 14.27-1.1016 19.996l21.254 26.609c-0.69531 1.5586-1.3945 3.125-2.0469 4.7227l-33.691 3.7773c-7.3203 0.84375-13.43 7.7461-13.383 15.113v80.609c0.03125 7.3164 6.1133 14.117 13.383 14.957l33.691 3.7773c0.65234 1.5977 1.3516 3.1641 2.0469 4.7227l-21.254 26.609c-4.5234 5.7227-4.0234 14.805 1.1016 19.996l56.992 56.992c5.168 5.2539 14.371 5.832 20.152 1.2578l26.609-21.254c1.5586 0.69531 3.1211 1.3945 4.7227 2.0469l3.7773 33.535c0.76562 7.3242 7.5938 13.504 14.957 13.539h80.609c7.3633-0.050781 14.188-6.2188 14.957-13.539l3.7773-33.535c1.6016-0.65234 3.1641-1.3516 4.7227-2.0469l26.609 21.254c5.7812 4.5703 14.984 3.9961 20.152-1.2578l56.992-56.992c5.125-5.1914 5.625-14.27 1.1016-19.996l-21.254-26.609c0.69531-1.5586 1.3945-3.125 2.0469-4.7227l33.691-3.7773c7.2695-0.83984 13.355-7.6406 13.383-14.957v-80.609c0.050781-7.3672-6.0625-14.27-13.383-15.113l-33.691-3.7773c-0.65234-1.5977-1.3516-3.1641-2.0469-4.7227l21.254-26.609c4.5234-5.7227 4.0234-14.805-1.1016-19.996l-56.992-56.992c-5.207-5.2109-14.406-5.7148-20.152-1.1016l-26.449 21.098c-1.6016-0.71484-3.2344-1.3789-4.8789-2.0469l-3.7773-33.535c-0.83984-7.2695-7.6406-13.355-14.957-13.383zm13.383 30.23h53.844l3.1484 28.812c0.60156 5.7266 4.7734 10.926 10.234 12.754 6.4375 2.082 12.746 4.8086 19.051 8.0312 5.1445 2.6758 11.832 2.0312 16.375-1.5742l22.984-18.422 37.941 37.941-18.422 22.984c-3.543 4.5117-4.1836 11.109-1.5742 16.215 3.2227 6.3047 5.9453 12.613 8.0312 19.051 1.7578 5.4766 6.8867 9.707 12.594 10.391l28.969 3.3047v53.371l-28.969 3.3047c-5.707 0.68359-10.84 4.918-12.594 10.391-2.082 6.4375-4.8086 12.746-8.0312 19.051-2.6094 5.1094-1.9688 11.707 1.5742 16.215l18.422 22.984-37.941 37.941-22.984-18.262c-4.5078-3.6562-11.199-4.3633-16.375-1.7305-6.3047 3.2227-12.613 5.9453-19.051 8.0273-5.4609 1.8281-9.6328 7.0273-10.234 12.754l-3.3047 28.969h-53.531l-3.3047-28.969c-0.60156-5.7266-4.7734-10.926-10.234-12.754-6.4375-2.082-12.746-4.8086-19.051-8.0273-5.1719-2.6328-11.867-1.9219-16.375 1.7305l-22.984 18.262-37.941-37.941 18.422-22.984c3.543-4.5117 4.1836-11.109 1.5742-16.215-3.2227-6.3047-5.9453-12.613-8.0312-19.051-1.7578-5.4766-6.8867-9.707-12.594-10.391l-28.969-3.3047v-53.371l28.969-3.3047c5.707-0.68359 10.84-4.918 12.594-10.391 2.082-6.4375 4.8086-12.746 8.0312-19.051 2.6094-5.1094 1.9688-11.707-1.5742-16.215l-18.422-22.984 37.941-37.941 22.984 18.422c4.5391 3.6055 11.23 4.25 16.375 1.5742 6.3047-3.2227 12.613-5.9453 19.051-8.0312 5.4609-1.8281 9.6328-7.0273 10.234-12.754zm26.922 70.535c-52.688 0-95.723 43.035-95.723 95.723s43.035 95.723 95.723 95.723 95.723-43.035 95.723-95.723-43.035-95.723-95.723-95.723zm0 30.23c36.352 0 65.496 29.145 65.496 65.496 0 36.352-29.145 65.496-65.496 65.496s-65.496-29.145-65.496-65.496c0-36.352 29.145-65.496 65.496-65.496z"/>
</svg>